# xmcd
#
# Track frame offsets: 
#        150
#        8561
#        24245
#        40562
#        55200
#        76275
#        91729
#        107317
#        131358
#        150258
#        164746
#        182675
#        207036
#        224871
#        242241
#        259084
#        276682
#        290595
#        294515
#
# Disc length: 4152 seconds
#
# Revision: 2
# Processed by: cddbd v1.5.2PL0 Copyright (c) Steve Scherf et al.
# Submitted via: ExactAudioCopyFreeDBPlugin 1.0
#
DISCID=05103613
DTITLE=Prinz Pi - Teenage Mutant Horror Show 2
DYEAR=2009
DGENRE=Rap
TTITLE0=Behutsame Einführung feat. E-Rich
TTITLE1=Meine Reise
TTITLE2=Illuminati
TTITLE3=Trümmer
TTITLE4=Höhlenmensch
TTITLE5=Minenfeld
TTITLE6=Engel
TTITLE7=Die grosse Genozid Show® feat. Basstard
TTITLE8=Fehler
TTITLE9=Du Hure 2009 Intro (Kissen)
TTITLE10=Du Hure 2009
TTITLE11=Der Regenmacher
TTITLE12=Handeln
TTITLE13=Fabelhafte Welt der Anarchie feat. Jonarama
TTITLE14=3 Minuten
TTITLE15=Wir ficken die Welt feat. Jamal
TTITLE16=Der Druck steigt
TTITLE17=Heimlicher Abgang feat. E-Rich
TTITLE18=333SDK - Satans Dicke Kinder feat. Jonarama
EXTD=
EXTT0=
EXTT1=
EXTT2=
EXTT3=
EXTT4=
EXTT5=
EXTT6=
EXTT7=
EXTT8=
EXTT9=
EXTT10=
EXTT11=
EXTT12=
EXTT13=
EXTT14=
EXTT15=
EXTT16=
EXTT17=
EXTT18=
PLAYORDER=
